<?xml version="1.0" encoding="utf-8"?>
<svg version="1.1" xmlns:xlink="http://www.w3.org/1999/xlink" width="30px" height="25px" xmlns="http://www.w3.org/2000/svg">
  <g transform="matrix(1 0 0 1 -382 -591 )">
    <path d="M 21.5805288461538 8.75355113636363  C 21.8088942307692 8.52864583333333  21.9230769230769 8.26231060606061  21.9230769230769 7.95454545454546  C 21.9230769230769 7.6467803030303  21.8088942307692 7.38044507575757  21.5805288461538 7.15553977272727  C 21.3521634615385 6.93063446969697  21.0817307692308 6.81818181818182  20.7692307692308 6.81818181818182  L 18.4615384615385 6.81818181818182  L 18.4615384615385 4.54545454545454  C 18.4615384615385 4.23768939393939  18.3473557692308 3.97135416666666  18.1189903846154 3.74644886363636  C 17.890625 3.52154356060606  17.6201923076923 3.40909090909091  17.3076923076923 3.40909090909091  C 16.9951923076923 3.40909090909091  16.7247596153846 3.52154356060606  16.4963942307692 3.74644886363636  C 16.2680288461538 3.97135416666666  16.1538461538462 4.23768939393939  16.1538461538462 4.54545454545454  L 16.1538461538462 6.81818181818182  L 13.8461538461538 6.81818181818182  C 13.5336538461538 6.81818181818182  13.2632211538462 6.93063446969697  13.0348557692308 7.15553977272727  C 12.8064903846154 7.38044507575757  12.6923076923077 7.6467803030303  12.6923076923077 7.95454545454546  C 12.6923076923077 8.26231060606061  12.8064903846154 8.52864583333333  13.0348557692308 8.75355113636363  C 13.2632211538462 8.97845643939394  13.5336538461538 9.09090909090909  13.8461538461538 9.09090909090909  L 16.1538461538462 9.09090909090909  L 16.1538461538462 11.3636363636364  C 16.1538461538462 11.6714015151515  16.2680288461538 11.9377367424242  16.4963942307692 12.1626420454545  C 16.7247596153846 12.3875473484848  16.9951923076923 12.5  17.3076923076923 12.5  C 17.6201923076923 12.5  17.890625 12.3875473484848  18.1189903846154 12.1626420454545  C 18.3473557692308 11.9377367424242  18.4615384615385 11.6714015151515  18.4615384615385 11.3636363636364  L 18.4615384615385 9.09090909090909  L 20.7692307692308 9.09090909090909  C 21.0817307692308 9.09090909090909  21.3521634615385 8.97845643939394  21.5805288461538 8.75355113636363  Z M 10.8623798076923 21.1203835227273  C 11.3131009615385 21.5642755681818  11.5384615384615 22.0999053030303  11.5384615384615 22.7272727272727  C 11.5384615384615 23.3546401515151  11.3131009615385 23.8902698863636  10.8623798076923 24.3341619318182  C 10.4116586538462 24.7780539772727  9.86778846153846 25  9.23076923076923 25  C 8.59375 25  8.04987980769231 24.7780539772727  7.59915865384615 24.3341619318182  C 7.1484375 23.8902698863636  6.92307692307692 23.3546401515151  6.92307692307692 22.7272727272727  C 6.92307692307692 22.0999053030303  7.1484375 21.5642755681818  7.59915865384615 21.1203835227273  C 8.04987980769231 20.6764914772727  8.59375 20.4545454545455  9.23076923076923 20.4545454545455  C 9.86778846153846 20.4545454545455  10.4116586538462 20.6764914772727  10.8623798076923 21.1203835227273  Z M 27.0162259615385 21.1203835227273  C 27.4669471153846 21.5642755681818  27.6923076923077 22.0999053030303  27.6923076923077 22.7272727272727  C 27.6923076923077 23.3546401515151  27.4669471153846 23.8902698863636  27.0162259615385 24.3341619318182  C 26.5655048076923 24.7780539772727  26.0216346153846 25  25.3846153846154 25  C 24.7475961538462 25  24.2037259615385 24.7780539772727  23.7530048076923 24.3341619318182  C 23.3022836538462 23.8902698863636  23.0769230769231 23.3546401515151  23.0769230769231 22.7272727272727  C 23.0769230769231 22.0999053030303  23.3022836538462 21.5642755681818  23.7530048076923 21.1203835227273  C 24.2037259615385 20.6764914772727  24.7475961538462 20.4545454545455  25.3846153846154 20.4545454545455  C 26.0216346153846 20.4545454545455  26.5655048076923 20.6764914772727  27.0162259615385 21.1203835227273  Z M 29.6574519230769 2.61008522727273  C 29.8858173076923 2.83499053030303  30 3.10132575757575  30 3.40909090909091  L 30 12.5  C 30 12.7840909090909  29.9038461538462 13.0356297348485  29.7115384615385 13.2546164772727  C 29.5192307692308 13.473603219697  29.2728365384615 13.6008522727273  28.9723557692308 13.6363636363636  L 10.1502403846154 15.8025568181818  C 10.1622596153846 15.8854166666667  10.1893028846154 16.012665719697  10.2313701923077 16.1843039772727  C 10.2734375 16.3559422348485  10.3094951923077 16.5127840909091  10.3395432692308 16.6548295454545  C 10.3695913461538 16.796875  10.3846153846154 16.9270833333333  10.3846153846154 17.0454545454545  C 10.3846153846154 17.2348484848485  10.2403846153846 17.6136363636364  9.95192307692308 18  L 26.5384615384615 18  C 26.8509615384615 18.1818181818182  27.1213942307692 18.2942708333333  27.3497596153846 18.5191761363636  C 27.578125 18.7440814393939  27.6923076923077 19.0104166666667  27.6923076923077 19.3181818181818  C 27.6923076923077 19.625946969697  27.578125 19.8922821969697  27.3497596153846 20.1171875  C 27.1213942307692 20.3420928030303  26.8509615384615 20.4545454545455  26.5384615384615 20  L 8.07692307692308 20  C 7.76442307692308 20.4545454545455  7.49399038461539 20.3420928030303  7.265625 20.1171875  C 7.03725961538462 19.8922821969697  6.92307692307692 19.625946969697  6.92307692307692 19.3181818181818  C 6.92307692307692 19.1524621212121  6.98918269230769 18.9186789772727  7.12139423076923 18.6168323863636  C 7.25360576923077 18.3149857954545  7.43088942307692 17.9628314393939  7.65324519230769 17.5603693181818  C 7.87560096153846 17.1579071969697  7.99879807692308 16.9330018939394  8.02283653846154 16.8856534090909  L 4.83173076923077 2.27272727272727  L 1.15384615384615 2.27272727272727  C 0.841346153846154 2.27272727272727  0.570913461538462 2.16027462121212  0.342548076923077 1.93536931818182  C 0.114182692307692 1.71046401515151  0 1.44412878787879  0 1.13636363636364  C 0 0.828598484848483  0.114182692307692 0.562263257575754  0.342548076923077 0.337357954545456  C 0.570913461538462 0.112452651515149  0.841346153846154 0  1.15384615384615 0  L 5.76923076923077 0  C 5.96153846153846 0  6.1328125 0.0384706439393923  6.28305288461538 0.115411931818182  C 6.43329326923077 0.19235321969697  6.55348557692308 0.284090909090909  6.64362980769231 0.390625  C 6.73377403846154 0.497159090909091  6.81189903846154 0.642163825757572  6.87800480769231 0.825639204545456  C 6.94411057692308 1.00911458333333  6.98918269230769 1.16595643939394  7.01322115384615 1.29616477272727  C 7.03725961538462 1.42637310606061  7.0703125 1.60097064393939  7.11237980769231 1.81995738636364  C 7.15444711538462 2.03894412878788  7.18149038461539 2.18986742424242  7.19350961538462 2.27272727272727  L 28.8461538461538 2.27272727272727  C 29.1586538461539 2.27272727272727  29.4290865384615 2.38517992424242  29.6574519230769 2.61008522727273  Z " fill-rule="nonzero" fill="#092c5d" stroke="none" transform="matrix(1 0 0 1 382 591 )" />
  </g>
</svg>