<?xml version="1.0" encoding="utf-8"?>
<svg version="1.1" xmlns:xlink="http://www.w3.org/1999/xlink" width="25px" height="25px" xmlns="http://www.w3.org/2000/svg">
  <g transform="matrix(1 0 0 1 24 -592 )">
    <path d="M 20.5915178571429 13.4114583333333  C 22.3400297619048 11.3715277777778  23.2142857142857 9.44010416666667  23.2142857142857 7.6171875  C 23.2142857142857 6.73828125  23.1143043154762 5.96245659722222  22.9143415178571 5.28971354166667  C 22.7143787202381 4.61697048611111  22.4586123511905 4.08257378472222  22.1470424107143 3.6865234375  C 21.8354724702381 3.29047309027778  21.4564732142857 2.96766493055556  21.0100446428571 2.71809895833333  C 20.5636160714286 2.46853298611111  20.1264880952381 2.30034722222222  19.6986607142857 2.21354166666667  C 19.2708333333333 2.12673611111111  18.8151041666667 2.08333333333333  18.3314732142857 2.08333333333333  C 17.8478422619048 2.08333333333333  17.3270089285714 2.2216796875  16.7689732142857 2.49837239583333  C 16.2109375 2.77506510416667  15.6970796130952 3.12228732638889  15.2273995535714 3.5400390625  C 14.7577194940476 3.95779079861111  14.35546875 4.34841579861111  14.0206473214286 4.7119140625  C 13.6858258928571 5.07541232638889  13.4068080357143 5.40907118055556  13.18359375 5.712890625  C 13.0161830357143 5.95160590277778  12.788318452381 6.07096354166667  12.5 6.07096354166667  C 12.211681547619 6.07096354166667  11.9838169642857 5.95160590277778  11.81640625 5.712890625  C 11.5931919642857 5.40907118055556  11.3141741071429 5.07541232638889  10.9793526785714 4.7119140625  C 10.64453125 4.34841579861111  10.2422805059524 3.95779079861111  9.77260044642857 3.5400390625  C 9.30292038690476 3.12228732638889  8.7890625 2.77506510416667  8.23102678571429 2.49837239583333  C 7.67299107142857 2.2216796875  7.15215773809524 2.08333333333333  6.66852678571429 2.08333333333333  C 6.18489583333333 2.08333333333333  5.72916666666667 2.12673611111111  5.30133928571429 2.21354166666667  C 4.87351190476191 2.30034722222222  4.43638392857143 2.46853298611111  3.98995535714286 2.71809895833333  C 3.54352678571429 2.96766493055556  3.1645275297619 3.29047309027778  2.85295758928571 3.6865234375  C 2.54138764880952 4.08257378472222  2.2856212797619 4.61697048611111  2.08565848214286 5.28971354166667  C 1.88569568452381 5.96245659722222  1.78571428571429 6.73828125  1.78571428571429 7.6171875  C 1.78571428571429 9.44010416666667  2.65531994047619 11.3661024305556  4.39453125 13.3951822916667  L 12.5 22.509765625  L 20.5915178571429 13.4114583333333  Z M 23.2282366071429 2.01822916666667  C 24.409412202381 3.36371527777778  25 5.23003472222222  25 7.6171875  C 25 10.0151909722222  23.9350818452381 12.4565972222222  21.8052455357143 14.94140625  L 13.1138392857143 24.70703125  C 12.9464285714286 24.90234375  12.7418154761905 25  12.5 25  C 12.2581845238095 25  12.0535714285714 24.90234375  11.8861607142857 24.70703125  L 3.18080357142857 14.9088541666667  C 3.08779761904762 14.8220486111111  2.95991443452381 14.6809895833333  2.79715401785714 14.4856770833333  C 2.63439360119048 14.2903645833333  2.37630208333333 13.9350043402778  2.02287946428571 13.4195963541667  C 1.6694568452381 12.9041883680556  1.35323660714286 12.3752170138889  1.07421875 11.8326822916667  C 0.795200892857143 11.2901475694444  0.546409970238095 10.6336805555556  0.327845982142857 9.86328125  C 0.109281994047619 9.09288194444444  0 8.34418402777778  0 7.6171875  C 0 5.23003472222222  0.590587797619048 3.36371527777778  1.77176339285714 2.01822916666667  C 2.95293898809524 0.672743055555555  4.58519345238095 0  6.66852678571429 0  C 7.24516369047619 0  7.83342633928571 0.116644965277776  8.43331473214286 0.349934895833334  C 9.033203125 0.583224826388887  9.59123883928571 0.897894965277776  10.107421875 1.2939453125  C 10.6236049107143 1.68999565972222  11.0677083333333 2.06163194444444  11.4397321428571 2.40885416666667  C 11.811755952381 2.75607638888889  12.1651785714286 3.125  12.5 3.515625  C 12.8348214285714 3.125  13.188244047619 2.75607638888889  13.5602678571429 2.40885416666667  C 13.9322916666667 2.06163194444444  14.3763950892857 1.68999565972222  14.892578125 1.2939453125  C 15.4087611607143 0.897894965277776  15.966796875 0.583224826388887  16.5666852678571 0.349934895833334  C 17.1665736607143 0.116644965277776  17.7548363095238 0  18.3314732142857 0  C 20.4148065476191 0  22.0470610119048 0.672743055555555  23.2282366071429 2.01822916666667  Z " fill-rule="nonzero" fill="#092c5d" stroke="none" transform="matrix(1 0 0 1 -24 592 )" />
  </g>
</svg>