<?xml version="1.0" encoding="utf-8"?>
<svg version="1.1" xmlns:xlink="http://www.w3.org/1999/xlink" width="65px" height="60px" xmlns="http://www.w3.org/2000/svg">
  <g transform="matrix(1 0 0 1 -267 -482 )">
    <path d="M 19.8772321428571 2.37723214285714  C 23.8913690476191 0.792410714285714  28.0989583333333 0  32.5 0  C 36.9010416666667 0  41.108630952381 0.792410714285714  45.1227678571429 2.37723214285714  C 49.1369047619048 3.96205357142857  52.5948660714286 6.09375  55.4966517857143 8.77232142857143  C 58.3984375 11.4508928571429  60.7077752976191 14.6428571428571  62.4246651785714 18.3482142857143  C 64.1415550595238 22.0535714285714  65 25.9375  65 30  C 65 34.0401785714286  64.1476004464286 37.9129464285714  62.4428013392857 41.6183035714286  C 60.7380022321429 45.3236607142857  58.4347098214286 48.515625  55.5329241071429 51.1941964285714  C 52.6311383928571 53.8727678571429  49.1731770833333 56.0100446428571  45.1590401785714 57.6060267857143  C 41.1449032738095 59.2020089285714  36.9252232142857 60  32.5 60  C 28.0747767857143 60  23.8550967261905 59.2075892857143  19.8409598214286 57.6227678571429  C 15.8268229166667 56.0379464285714  12.3749069940476 53.9006696428571  9.48521205357143 51.2109375  C 6.59551711309524 48.5212053571429  4.29222470238095 45.3292410714286  2.57533482142857 41.6350446428571  C 0.85844494047619 37.9408482142857  0 34.0625  0 30  C 0 25.9375  0.85844494047619 22.0535714285714  2.57533482142857 18.3482142857143  C 4.29222470238095 14.6428571428571  6.6015625 11.4508928571429  9.50334821428572 8.77232142857143  C 12.4051339285714 6.09375  15.8630952380952 3.96205357142857  19.8772321428571 2.37723214285714  Z M 43.8532366071429 34.2857142857143  C 49.6568080357143 34.2857142857143  53.3565848214286 37.9352678571429  54.9525669642857 45.234375  C 58.5556175595238 40.6584821428571  60.3571428571429 35.5803571428571  60.3571428571429 30  C 60.3571428571429 26.5178571428571  59.6196056547619 23.1919642857143  58.14453125 20.0223214285714  C 56.6694568452381 16.8526785714286  54.6865699404762 14.1183035714286  52.1958705357143 11.8191964285714  C 49.7051711309524 9.52008928571429  46.7429315476191 7.68973214285714  43.3091517857143 6.328125  C 39.8753720238095 4.96651785714285  36.2723214285714 4.28571428571428  32.5 4.28571428571428  C 28.7276785714286 4.28571428571428  25.1246279761905 4.96651785714285  21.6908482142857 6.328125  C 18.257068452381 7.68973214285714  15.2948288690476 9.52008928571429  12.8041294642857 11.8191964285714  C 10.3134300595238 14.1183035714286  8.33054315476191 16.8526785714286  6.85546875 20.0223214285714  C 5.3803943452381 23.1919642857143  4.64285714285714 26.5178571428571  4.64285714285714 30  C 4.64285714285714 35.5803571428571  6.44438244047619 40.6584821428571  10.0474330357143 45.234375  C 11.6434151785714 37.9352678571429  15.3431919642857 34.2857142857143  21.1467633928571 34.2857142857143  C 24.3145461309524 37.1428571428571  28.0989583333333 38.5714285714286  32.5 38.5714285714286  C 36.9010416666667 38.5714285714286  40.6854538690476 37.1428571428571  43.8532366071429 34.2857142857143  Z M 42.3479352678571 32.6618303571429  C 45.068359375 30.1506696428571  46.4285714285714 27.1205357142857  46.4285714285714 23.5714285714286  C 46.4285714285714 20.0223214285714  45.068359375 16.9921875  42.3479352678571 14.4810267857143  C 39.6275111607143 11.9698660714286  36.3448660714286 10.7142857142857  32.5 10.7142857142857  C 28.6551339285714 10.7142857142857  25.3724888392857 11.9698660714286  22.6520647321429 14.4810267857143  C 19.931640625 16.9921875  18.5714285714286 20.0223214285714  18.5714285714286 23.5714285714286  C 18.5714285714286 27.1205357142857  19.931640625 30.1506696428571  22.6520647321429 32.6618303571429  C 25.3724888392857 35.1729910714286  28.6551339285714 36.4285714285714  32.5 36.4285714285714  C 36.3448660714286 36.4285714285714  39.6275111607143 35.1729910714286  42.3479352678571 32.6618303571429  Z " fill-rule="nonzero" fill="#092c5d" stroke="none" transform="matrix(1 0 0 1 267 482 )" />
  </g>
</svg>